<?xml version="1.0" standalone="no"?>
<!DOCTYPE svg PUBLIC "-//W3C//DTD SVG 20010904//EN"
 "http://www.w3.org/TR/2001/REC-SVG-20010904/DTD/svg10.dtd">
<svg version="1.0" xmlns="http://www.w3.org/2000/svg"
 width="512.000000pt" height="512.000000pt" viewBox="0 0 512.000000 512.000000"
 preserveAspectRatio="xMidYMid meet">

<g transform="translate(0.000000,512.000000) scale(0.100000,-0.100000)"
fill="#000000" stroke="none">
<path d="M410 3949 c-119 -20 -242 -103 -311 -210 -95 -149 -92 -366 9 -510
17 -24 468 -481 1004 -1015 908 -907 977 -974 1039 -1003 133 -62 272 -60 409
5 73 35 102 63 1056 1018 907 907 983 986 1011 1046 80 167 66 339 -38 485
-141 197 -422 249 -627 116 -26 -17 -398 -381 -827 -811 l-780 -780 -790 788
c-861 859 -835 836 -982 867 -76 16 -94 17 -173 4z"/>
</g>
</svg>
