<?xml version="1.0" encoding="UTF-8"?>
<svg width="700pt" height="700pt" version="1.1" viewBox="0 0 700 700" xmlns="http://www.w3.org/2000/svg">
 <g>
  <path d="m263.5 273.16c5.9102 5.8047 14.457 8.0391 22.453 5.8711 7.9961-2.168 14.242-8.4141 16.41-16.41 2.168-7.9961-0.066407-16.543-5.8711-22.453l-30.168-30.172h223.67c8.3359 0 16.039-4.4492 20.207-11.668s4.168-16.113 0-23.332-11.871-11.668-20.207-11.668h-223.67l30.168-30.168c5.8047-5.9102 8.0391-14.457 5.8711-22.453-2.168-7.9961-8.4141-14.242-16.41-16.414-7.9961-2.168-16.543 0.066406-22.453 5.875l-70 70c-4.3789 4.3711-6.8359 10.309-6.8359 16.496s2.457 12.121 6.8359 16.496z"/>
  <path d="m436.5 263.5c-5.9102-5.8047-14.457-8.0391-22.453-5.8711-7.9961 2.168-14.242 8.4141-16.41 16.41-2.168 7.9961 0.066407 16.543 5.8711 22.453l30.168 30.172h-223.67c-8.3359 0-16.039 4.4453-20.207 11.664s-4.168 16.117 0 23.336 11.871 11.664 20.207 11.664h223.67l-30.172 30.172c-4.418 4.3633-6.9141 10.312-6.9336 16.527-0.019531 6.2109 2.4375 12.176 6.832 16.57 4.3945 4.3945 10.359 6.8516 16.57 6.832 6.2148-0.019532 12.164-2.5156 16.527-6.9375l70-70c4.3789-4.375 6.8359-10.309 6.8359-16.496s-2.457-12.125-6.8359-16.5z"/>
 </g>
</svg>
